<?xml version="1.0" encoding="UTF-8"?><svg id="Layer_1" xmlns="http://www.w3.org/2000/svg" viewBox="0 0 716.89 252.28"><defs><style>.cls-1,.cls-2{fill:#fff;}.cls-2{font-family:GillSansMT-Bold, 'Gill Sans MT';font-size:194px;}.cls-3{fill:#1d1d1b;}</style></defs><rect className="cls-3" x="28.31" y="30.69" width="195" height="195"/><rect className="cls-3" x="260.31" y="30.69" width="195" height="195"/><rect className="cls-3" x="492.31" y="30.69" width="195" height="195"/><path className="cls-1" d="M126.17,92.18c-3.52,7.05-6.85,13.72-10.17,20.4-13.27,26.63-26.57,53.25-39.77,79.92-.95,1.92-2.06,2.69-4.17,2.6-3.63-.15-7.26-.07-10.9-.04-1.46,.01-2.15-.51-2.13-2.09,.07-4.19-.02-8.39,.06-12.58,.02-.93,.32-1.93,.75-2.78,19.14-38.32,38.31-76.62,57.44-114.93,.67-1.35,1.5-2.02,3.06-1.99,3.98,.07,7.97,.07,11.95,0,1.46-.02,2.26,.58,2.9,1.87,19.08,38.21,38.2,76.41,57.28,114.63,.42,.84,.67,1.85,.68,2.78,.07,4.33-.04,8.67,.07,13,.04,1.61-.63,2.1-2.07,2.09-3.91-.02-7.83-.08-11.74,.03-1.81,.05-2.35-1.12-2.99-2.4-10.46-20.99-20.94-41.97-31.41-62.95-5.89-11.8-11.78-23.6-17.67-35.4-.31-.61-.65-1.21-1.17-2.15Z"/><text className="cls-2" transform="translate(278.95 195.15)"><tspan x="0" y="0">N</tspan></text><text className="cls-2" transform="translate(512.95 195.15)"><tspan x="0" y="0">C</tspan></text></svg>